#!OML:ASF I:\salsa\salsa 7_09\Patient 1\Session 1\dancermale.ASF
:FULLY-SPECIFIED
:DEGREES
2352
root 1.13349 16.8918 2.61114 -2506.43 125.758 1080.46
lowerback 176.936 -179.604 -179.713
upperback -2.13026 -0.492283 -0.390657
thorax -0.471362 -0.233435 -0.573484
lowerneck -7.63126 2.12926 2.90873
upperneck 25.3758 4.99618 -5.3969
head 9.43202 2.45693 -1.77496
rclavicle -6.1996e-014 -1.51076e-014
rhumerus -208.99 202.539 -253.689
rradius 96.0464
rwrist -26.2033
rhand -37.5557 10.6892
rfingers 7.12502
rthumb -10.6107 -19.0229
lclavicle -6.1996e-014 -1.51076e-014
lhumerus -26.3618 -19.8028 102.039
lradius 81.4994
lwrist 56.4713
lhand -16.2711 52.4624
lfingers 7.12502
lthumb 9.93861 -2077.79
rfemur -43.3382 4.90679 8.98262
rtibia 73.1486
rfoot -2.16016 -15.2932
rtoes 30.0083
lfemur -28.7592 -0.878832 -15.7492
ltibia 39.6447
lfoot -25.6862 8.0895
ltoes -32.4969
2353
root 1.11456 16.8551 2.77972 -2506.97 125.877 1079.63
lowerback 176.416 -179.853 -179.991
upperback -2.10665 -0.145949 -0.844623
thorax -0.152749 -0.0567756 -0.87528
lowerneck -7.53174 2.56386 3.46751
upperneck 25.0788 5.62673 -5.8825
head 9.36938 2.75809 -1.97122
rclavicle -3.41661e-014 -1.45113e-014
rhumerus -209.724 201.457 -254.523
rradius 96.7334
rwrist -25.9737
rhand -37.8702 10.7484
rfingers 7.12502
rthumb -10.914 -18.948
lclavicle -3.41661e-014 -1.45113e-014
lhumerus -26.5134 -19.4465 101.863
lradius 80.2152
lwrist 56.7177
lhand -15.5708 52.2572
lfingers 7.12502
lthumb 10.6142 -2078.03
rfemur -42.0585 5.67479 6.94791
rtibia 73.6554
rfoot -1.7018 -15.1399
rtoes 30.7356
lfemur -30.0121 -1.35052 -15.6979
ltibia 40.7503
lfoot -25.7675 8.31773
ltoes -33.2781
2354
root 1.10074 16.8323 2.9638 -2506.53 125.644 1079.64
lowerback 175.804 -180.284 -179.85
upperback -2.21758 0.438498 -1.19094
thorax 0.0870389 0.237694 -1.28658
lowerneck -7.71681 3.12494 3.5355
upperneck 25.0449 6.41253 -5.85331
head 9.43892 3.1316 -1.88314
rclavicle 7.50412e-014 1.98785e-015
rhumerus -210.393 200.431 -255.417
rradius 97.5139
rwrist -25.4597
rhand -38.1493 10.4797
rfingers 7.12502
rthumb -11.1833 -19.2022
lclavicle 7.50412e-014 1.98785e-015
lhumerus -26.5849 -19.052 101.701
lradius 78.8515
lwrist 57.0961
lhand -15.1123 51.8059
lfingers 7.12502
lthumb 11.0564 -2078.51
rfemur -41.0056 6.77688 5.41307
rtibia 73.4571
rfoot -0.733108 -14.5406
rtoes 30.7899
lfemur -31.4753 -0.833479 -15.0858
ltibia 41.6506
lfoot -25.8034 8.39151
ltoes -34.1147
2355
root 1.11656 16.807 3.12971 -2506.7 125.536 1079.06
lowerback 174.976 -180.664 -179.924
upperback -2.20399 0.967528 -1.61038
thorax 0.58113 0.507708 -1.64198
lowerneck -7.735 3.70604 3.77945
upperneck 24.8694 7.23786 -6.01634
head 9.44299 3.52476 -1.88826
rclavicle 7.40473e-014 -7.95139e-015
rhumerus -210.941 199.304 -256.234
rradius 98.2539
rwrist -24.9199
rhand -38.4697 10.3319
rfingers 7.12502
rthumb -11.4922 -19.3331
lclavicle 7.40473e-014 -7.95139e-015
lhumerus -26.5901 -18.4409 101.555
lradius 77.4884
lwrist 57.4654
lhand -14.6119 51.0433
lfingers 7.12502
lthumb 11.539 -2079.29
rfemur -39.1329 7.58677 3.59748
rtibia 72.089
rfoot 0.925866 -13.3354
rtoes 29.9987
lfemur -31.9379 -0.499292 -14.8967
ltibia 41.3745
lfoot -25.6262 8.08972
ltoes -34.5453
2356
root 1.13515 16.8015 3.33885 -2506.2 125.479 1079.04
lowerback 174.449 -181.047 -179.983
upperback -2.37442 1.5012 -1.89439
thorax 0.720648 0.780184 -1.86319
lowerneck -7.66065 4.34921 4.26665
upperneck 24.5462 8.14317 -6.37258
head 9.40481 3.95933 -1.99308
rclavicle -6.32632e-014 -1.23246e-014
rhumerus -211.46 198.028 -257.029
rradius 98.9545
rwrist -24.3905
rhand -38.7508 10.0841
rfingers 7.12502
rthumb -11.7634 -19.5655
lclavicle -6.32632e-014 -1.23246e-014
lhumerus -26.6856 -17.6256 101.361
lradius 76.2491
lwrist 57.8117
lhand -14.5587 50.1461
lfingers 7.12502
lthumb 11.5904 -2080.19
rfemur -37.5434 8.67759 2.38515
rtibia 70.2854
rfoot 3.13148 -12.1774
rtoes 28.6357
lfemur -32.4357 -0.0798478 -14.1023
ltibia 40.5895
lfoot -25.1718 7.54968
ltoes -34.3893
2357
root 1.178 16.8102 3.5609 -2505.88 125.479 1079.09
lowerback 174.336 -181.405 -180.105
upperback -2.56631 1.99955 -2.17182
thorax 0.608456 1.03389 -2.0493
lowerneck -7.66651 5.08703 4.79465
upperneck 24.4191 9.18266 -6.62999
head 9.46635 4.46877 -2.04959
rclavicle 4.57205e-014 3.53837e-014
rhumerus -212.029 196.677 -257.935
rradius 99.6098
rwrist -23.7243
rhand -39.0497 10.0425
rfingers 7.12502
rthumb -12.0516 -19.5905
lclavicle 4.57205e-014 3.53837e-014
lhumerus -26.8571 -16.3933 100.963
lradius 74.9588
lwrist 57.4853
lhand -13.9417 49.5507
lfingers 7.12502
lthumb 12.1853 -2080.82
rfemur -35.3392 9.96643 1.58093
rtibia 67.6864
rfoot 4.99953 -9.16025
rtoes 29.3738
lfemur -32.3467 -0.0121673 -13.1381
ltibia 39.2473
lfoot -24.4008 7.31692
ltoes -34.4911
2358
root 1.24688 16.8261 3.78585 -2505.87 125.85 1079.04
lowerback 174.405 -181.645 -180.302
upperback -2.69659 2.33917 -2.38651
thorax 0.448937 1.20768 -2.14314
lowerneck -7.47354 5.82509 5.40861
upperneck 24.2517 10.2365 -6.93594
head 9.49373 4.9957 -2.13786
rclavicle -5.66536e-015 7.95139e-015
rhumerus -212.712 195.259 -258.808
rradius 100.301
rwrist -23.1343
rhand -39.3647 10.4353
rfingers 7.12502
rthumb -12.3553 -19.1796
lclavicle -5.66536e-015 7.95139e-015
lhumerus -26.8984 -14.5891 100.345
lradius 73.4733
lwrist 58.1187
lhand -13.2781 48.1166
lfingers 7.12502
lthumb 12.8251 -2082.3
rfemur -32.2743 11.155 1.26877
rtibia 64.2596
rfoot 6.43732 -6.95495
rtoes 27.3029
lfemur -32.0021 -0.567978 -12.106
ltibia 37.8635
lfoot -23.5134 7.4141
ltoes -35.0604
2359
root 1.33808 16.8527 4.0277 -2505.68 126.64 1079.35
lowerback 174.717 -181.851 -180.346
upperback -2.82949 2.61501 -2.53803
thorax 0.153677 1.34695 -2.27237
lowerneck -7.28658 6.58889 5.87393
upperneck 24.0202 11.3014 -7.07284
head 9.49237 5.52961 -2.13967
rclavicle 3.38928e-014 -7.95139e-016
rhumerus -213.737 193.975 -259.641
rradius 101.233
rwrist -22.6743
rhand -39.7087 10.7432
rfingers 7.12502
rthumb -12.687 -18.8515
lclavicle 3.38928e-014 -7.95139e-016
lhumerus -26.9232 -12.6828 99.4816
lradius 72.0716
lwrist 58.6389
lhand -12.4509 46.6745
lfingers 7.12502
lthumb 13.6225 -2083.79
rfemur -28.5609 12.4347 1.87633
rtibia 60.2001
rfoot 5.70868 -5.28119
rtoes 18.7854
lfemur -31.8005 -1.18068 -10.6998
ltibia 36.7855
lfoot -22.676 7.42907
ltoes -35.9234
2360
root 1.44995 16.8858 4.28295 -2505.18 127.747 1079.97
lowerback 175.25 -182.043 -180.207
upperback -3.10925 2.86198 -2.66624
thorax -0.408272 1.46934 -2.49723
lowerneck -6.94047 7.34754 6.31077
upperneck 23.7398 12.3443 -7.08454
head 9.43881 6.07006 -2.1019
rclavicle 1.99779e-014 -1.03368e-014
rhumerus -215.187 192.825 -260.528
rradius 102.354
rwrist -22.0993
rhand -40.0523 10.9225
rfingers 7.12502
rthumb -13.0182 -18.6513
lclavicle 1.99779e-014 -1.03368e-014
lhumerus -27.2179 -10.9192 98.3745
lradius 71.0959
lwrist 58.6526
lhand -11.5918 45.6588
lfingers 7.12502
lthumb 14.4503 -2084.86
rfemur -24.5702 13.4921 3.28695
rtibia 55.4385
rfoot 1.91801 -4.65676
rtoes 10.8212
lfemur -31.7804 -1.50819 -9.0096
ltibia 35.7883
lfoot -21.8448 7.00962
ltoes -36.498
2361
root 1.57927 16.9238 4.54661 -2504.67 129.275 1080.59
lowerback 175.988 -182.148 -180.087
upperback -3.51718 2.99081 -2.72495
thorax -1.22518 1.53103 -2.66341
lowerneck -6.31882 8.01311 6.74819
upperneck 23.3733 13.3029 -7.18803
head 9.30867 6.57843 -2.11942
rclavicle 4.17448e-015 2.78299e-014
rhumerus -216.935 191.655 -261.415
rradius 103.519
rwrist -21.3526
rhand -40.5408 11.3364
rfingers 7.12502
rthumb -13.4891 -18.2068
lclavicle 4.17448e-015 2.78299e-014
lhumerus -27.8144 -9.32092 97.1862
lradius 70.5939
lwrist 58.3138
lhand -11.0478 44.8396
lfingers 7.12502
lthumb 14.9744 -2085.72
rfemur -20.4973 13.6492 5.22501
rtibia 50.0357
rfoot -1.22021 -5.71532
rtoes 3.28841
lfemur -31.7393 -1.94375 -7.21
ltibia 34.4856
lfoot -20.8803 6.23805
ltoes -36.2952
2362
root 1.71593 16.9664 4.81714 -2504.2 130.985 1081.18
lowerback 176.103 -182.282 -179.807
upperback -3.26728 3.15686 -2.85055
thorax -1.00281 1.60708 -2.94088
lowerneck -6.32956 8.7328 7.09527
upperneck 22.5788 14.2161 -7.44083
head 9.15504 7.0002 -2.15509
rclavicle -7.60351e-014 3.73715e-014
rhumerus -217.59 190.699 -262.643
rradius 104.555
rwrist -20.4226
rhand -41.4438 12.2317
rfingers 7.12502
rthumb -14.3593 -17.2516
lclavicle -7.60351e-014 3.73715e-014
lhumerus -27.2984 -8.04445 95.62
lradius 70.3323
lwrist 57.8589
lhand -10.4733 43.6466
lfingers 7.12502
lthumb 15.5278 -2086.96
rfemur -16.9103 12.9573 7.47486
rtibia 45.0646
rfoot -4.40355 -6.76039
rtoes -2.43244
lfemur -31.5923 -2.58198 -5.38288
ltibia 32.7734
lfoot -19.4105 5.55704
ltoes -35.4823
